<svg xmlns:dc="http://purl.org/dc/elements/1.1/" xmlns:cc="http://creativecommons.org/ns#" xmlns:rdf="http://www.w3.org/1999/02/22-rdf-syntax-ns#" xmlns:svg="http://www.w3.org/2000/svg" xmlns="http://www.w3.org/2000/svg" xmlns:xlink="http://www.w3.org/1999/xlink" id="svg81437" viewBox="0 0 1024 768" height="768px" width="1024px" version="1.1">
  <metadata id="metadata81443">
    <rdf:rdf>
      <cc:work rdf:about="">
        <dc:format>image/svg+xml</dc:format>
        <dc:type rdf:resource="http://purl.org/dc/dcmitype/StillImage"></dc:type>
      </cc:work>
    </rdf:rdf>
  </metadata>
  <defs id="defs81441"></defs>
  <linearGradient spreadMethod="pad" y2="30%" x2="-10%" y1="120%" x1="30%" id="3d_gradient2-logo-fe559465-b420-4e71-9cc7-22642c2f4ae7">
    <stop id="stop81418" stop-opacity="1" stop-color="#ffffff" offset="0%"></stop>
    <stop id="stop81420" stop-opacity="1" stop-color="#000000" offset="100%"></stop>
  </linearGradient>
  <linearGradient gradientTransform="rotate(-30)" spreadMethod="pad" y2="30%" x2="-10%" y1="120%" x1="30%" id="3d_gradient3-logo-fe559465-b420-4e71-9cc7-22642c2f4ae7">
    <stop id="stop81423" stop-opacity="1" stop-color="#ffffff" offset="0%"></stop>
    <stop id="stop81425" stop-opacity="1" stop-color="#cccccc" offset="50%"></stop>
    <stop id="stop81427" stop-opacity="1" stop-color="#000000" offset="100%"></stop>
  </linearGradient>
  <g id="logo-group">
    <image xlink:href="" id="container" x="272" y="144" width="480" height="480" style="display: none;" transform="translate(0 0)"></image>
    <g id="logo-center" transform="translate(83.78398874999982 0)">
      <image xlink:href="" id="icon_container" x="0" y="0" style="display: none;"></image>
      <g id="slogan" style="font-style:normal;font-weight:700;font-size:32px;line-height:1;font-family:'Brandmark1 Bold Color';font-variant-ligatures:none;text-align:center;text-anchor:middle" transform="translate(0 0)"></g>
      <g id="title" style="font-style:normal;font-weight:700;font-size:72px;line-height:1;font-family:'Brandmark1 Bold Color';font-variant-ligatures:normal;text-align:center;text-anchor:middle" transform="translate(0 0)">
        <g id="path81446" aria-label="V" transform="translate(0 324.63100000000003) translate(50 10.417999999999992) scale(1.75) translate(-311.363 53.64)"> <path class="c1" d="M74.25073,71.91748H86.427l13.60938,37.31348l13.60938-37.31348h12.10352l-21.19824,56.16504h-9.10156 L74.25073,71.91748z" transform="translate(237.11227 -125.55748)" stroke-width="0" stroke-linejoin="miter" stroke-miterlimit="2" fill="#a09c9c" stroke="#a09c9c"></path> </g>
        <g id="path81448" aria-label="A" transform="translate(0 324.63100000000003) translate(130.93639749999997 10.417999999999992) scale(1.75) translate(-353.61237 53.64)"> <polygon class="c1" points="104.82788,71.91748 95.08569,71.91748 73.80786,128.08252 85.77515,128.08252 99.93921,89.14844 114.22534,128.08252 126.19214,128.08252 " transform="translate(279.80451 -125.55748)" stroke-width="0" stroke-linejoin="miter" stroke-miterlimit="2" fill="#a09c9c" stroke="#a09c9c"></polygon> <polygon class="c3" points="100.03819,128.08252 91.09854,114.24284 108.90146,114.24284 " transform="translate(279.80451 -125.55748)" stroke-width="0" stroke-linejoin="miter" stroke-miterlimit="2" fill="#a09c9c" stroke="#a09c9c"></polygon> </g>
        <g id="path81450" aria-label="L" transform="translate(0 324.63100000000003) translate(233.03883499999995 10.417999999999992) scale(1.75) translate(-407.95662 53.64)"> <path class="c1" d="M81.71045,75.51782l11.30469-3.6001v45.43604h25.27441v10.72852h-36.5791V75.51782z" transform="translate(326.24617 -125.55772)" stroke-width="0" stroke-linejoin="miter" stroke-miterlimit="2" fill="#a09c9c" stroke="#a09c9c"></path> </g>
        <g id="path81452" aria-label="S" transform="translate(0 324.63100000000003) translate(302.8675624999999 9.536000000000001) scale(1.75) translate(-443.85875 54.144)"> <path class="c1" d="M80.97266,119.83057l-1.51953-1.62793l7.43848-8.89941l1.92188,2.41211 c1.50488,1.88672,3.4707,3.43457,5.6748,4.47168c2.07324,0.979,4.3125,1.49023,6.47266,1.49023 c2.5498,0,4.72363-0.56152,6.12109-1.57666c1.25977-0.91455,1.87207-2.13867,1.87207-3.75146 c0-1.75732-0.54004-2.84424-1.91504-3.87402c-1.58496-1.18115-4.14844-2.146-7.12207-3.26904 c-0.25195-0.09375-0.51074-0.19434-0.77734-0.29541c-4.08301-1.51904-8.00684-3.08154-11.1543-5.5874 c-1.82861-1.45459-3.18213-3.06055-4.14014-4.90381c-1.06543-2.04492-1.60547-4.37061-1.60547-6.9126 c0-4.42822,1.91553-8.52539,5.38623-11.53564c3.37012-2.91602,7.89844-4.52148,12.75977-4.52148 c6.27832,0,12.40625,2.26074,17.71289,6.53076l1.91602,1.54834l-6.90625,8.98633l-2.01563-1.65625 c-3.5498-2.93066-7.45313-4.6084-10.70703-4.6084c-3.02441,0-6.56738,1.31055-6.625,5.00439 c-0.02148,1.64893,0.77051,2.54883,1.97266,3.3916c1.72168,1.20947,4.45703,2.25342,7.35254,3.3623l0.02832,0.00732 c0.4541,0.18018,0.90723,0.36035,1.36133,0.53271c4.09668,1.60596,7.9707,3.11816,10.9082,5.5376 c3.4707,2.86572,5.16309,6.63867,5.16309,11.54248c0,2.65723-0.56836,5.12695-1.69238,7.34424 c-1.05859,2.07422-2.57031,3.88184-4.51465,5.37207c-3.54199,2.70703-8.31641,4.20508-13.4502,4.20508 C93.2998,128.55029,86.229,125.45459,80.97266,119.83057z" transform="translate(364.40562 -125.59373)" stroke-width="0" stroke-linejoin="miter" stroke-miterlimit="2" fill="#a09c9c" stroke="#a09c9c"></path> </g>
        <g id="path81454" aria-label="C" transform="translate(0 324.63100000000003) translate(386.3593974999999 9.284000000000006) scale(1.75) translate(-487.56837 54.288)"> <path class="c1" d="M91.27637,126.36865c-3.40576-1.44043-6.46631-3.50684-9.09424-6.13477 c-2.62842-2.62793-4.6875-5.68848-6.13477-9.09473c-1.49072-3.52783-2.25391-7.27979-2.25391-11.13916 s0.75586-7.61084,2.25391-11.13916c1.43994-3.40625,3.50635-6.46631,6.13477-9.09473 c2.62793-2.62793,5.68848-4.6875,9.09424-6.13477c3.52881-1.49756,7.27979-2.25391,11.13916-2.25391 c9.5625,0,18.45508,4.74561,23.79102,12.70215l-9.38965,6.29346c-3.22559-4.81738-8.61133-7.69043-14.40137-7.69043 c-4.62207,0-8.97168,1.80029-12.24805,5.06934S85.09814,95.37744,85.09814,100c0,4.62305,1.80029,8.97217,5.06934,12.24854 c3.26855,3.26953,7.61816,5.06836,12.24805,5.06836c5.76074,0,11.13281-2.85742,14.36523-7.63867l9.36816,6.32813 c-5.33594,7.90039-14.20703,12.61621-23.7334,12.61621C98.55615,128.62256,94.80518,127.8667,91.27637,126.36865z" transform="translate(413.77492 -125.66542)" stroke-width="0" stroke-linejoin="miter" stroke-miterlimit="2" fill="#a09c9c" stroke="#a09c9c"></path> </g>
        <g id="path81456" aria-label="R" transform="translate(0 324.63100000000003) translate(488.56618749999996 10.417999999999992) scale(1.75) translate(-541.97225 53.64)"> <path class="c1" d="M121.90405,128.08252h-13.65918l-13.37109-19.27637V97.83984h2.16016 c3.40527,0,5.9541-0.74902,7.56738-2.23242c1.38281-1.27441,2.08105-3.11084,2.08105-5.47266 c0-2.4624-0.71973-4.33447-2.13867-5.55859c-1.4541-1.26025-3.75879-1.92969-6.64648-1.92969h-8.49609v45.43604H78.09595V71.91748 h20.66553c3.16113,0,6.0127,0.45361,8.48926,1.34619c2.44141,0.88574,4.5293,2.21094,6.20703,3.93164 c3.10352,3.18994,4.74512,7.71191,4.74512,13.0835c0,4.81738-1.33203,8.79932-3.95996,11.83789 c-1.8291,2.10986-4.24121,3.72266-7.2002,4.81006L121.90405,128.08252z" transform="translate(463.8763 -125.55748)" stroke-width="0" stroke-linejoin="miter" stroke-miterlimit="2" fill="#a09c9c" stroke="#a09c9c"></path> </g>
        <g id="path81458" aria-label="Y" transform="translate(0 324.63100000000003) translate(560.48571 10.417999999999992) scale(1.75) translate(-579.06912 53.64)"> <path class="c1" d="M94.26416,103.44873L74.93115,71.91748h13.12598L99.9458,91.63281l11.83105-19.71533h13.29199 l-19.49902,31.53125v24.63379H94.26416V103.44873z" transform="translate(504.13797 -125.55748)" stroke-width="0" stroke-linejoin="miter" stroke-miterlimit="2" fill="#a09c9c" stroke="#a09c9c"></path> </g>
        <g id="path81460" aria-label="P" transform="translate(0 324.63100000000003) translate(655.8826025000002 10.417999999999992) scale(1.75) translate(-629.58163 53.64)"> <path class="c1" d="M115.22217,77.20288c-3.39844-3.50684-8.36035-5.28516-14.75391-5.28516H80.09033v56.16455h11.30469 V82.64673h8.4248c2.78711,0,5.01855,0.66211,6.44434,1.92236c1.41211,1.23145,2.125,3.11084,2.125,5.56592 c0,2.37646-0.69141,4.21973-2.05273,5.47998c-1.59863,1.47607-4.12598,2.2251-7.52441,2.2251h-1.89874v10.72852h2.47491 c2.92285,0,5.62305-0.35254,8.01367-1.04395c2.5498-0.7417,4.75977-1.87207,6.58203-3.36279 c1.92188-1.57666,3.40527-3.5498,4.40625-5.86816c1.00879-2.34033,1.51953-5.0332,1.51953-8.01465 C119.90967,84.89331,118.28955,80.37134,115.22217,77.20288z" transform="translate(549.4913 -125.55772)" stroke-width="0" stroke-linejoin="miter" stroke-miterlimit="2" fill="#a09c9c" stroke="#a09c9c"></path> </g>
        <g id="path81462" aria-label="T" transform="translate(0 324.63100000000003) translate(732.8480225000003 10.417999999999992) scale(1.75) translate(-669.56187 53.64)"> <path class="c1" d="M94.23975,82.64648H78.97412v-10.729h42.05176v10.729h-15.48145v45.43604H94.23975V82.64648z" transform="translate(590.58775 -125.55748)" stroke-width="0" stroke-linejoin="miter" stroke-miterlimit="2" fill="#a09c9c" stroke="#a09c9c"></path> </g>
               </g>
      <image xlink:href="" id="icon" x="0" y="0" style="display: none;"></image>
    </g>
  </g>
</svg>